<svg width="275" height="137" viewBox="0 0 275 137" fill="none" xmlns="http://www.w3.org/2000/svg">
<g clip-path="url(#clip0_90_349)">
<path d="M34.7089 76.3113C16.5413 76.3113 1.76038 61.5537 1.76038 43.4147C1.76038 25.2758 16.5413 10.5181 34.7089 10.5181C43.5108 10.5181 51.7832 13.9406 58.0064 20.154L51.1987 26.951C46.7943 22.5535 40.9356 20.13 34.7089 20.13C21.85 20.13 11.3874 30.576 11.3874 43.4147C11.3874 54.2796 18.8828 63.4349 28.9809 65.9889C30.8134 66.4523 32.732 66.6995 34.7089 66.6995C45.9176 66.6995 55.3074 58.7628 57.5319 48.2207H51.1093V38.6088H67.6575V43.4147C67.6575 61.5537 52.8766 76.3113 34.7089 76.3113Z" fill="white"/>
<path d="M196.601 48.5708C195.271 49.3672 194.666 50.3696 194.741 50.9738L194.786 51.0459C194.827 51.0493 194.889 51.0527 194.972 51.0527C195.264 51.0527 195.625 50.9669 196.168 50.7713H196.172C197.086 50.452 198.276 49.8993 199.71 49.1269L201.573 48.0696L201.828 47.9049C201.181 47.7366 200.576 47.6508 200.026 47.6508C198.857 47.6543 197.709 47.9632 196.601 48.5708Z" fill="white"/>
<path d="M156.109 92.6001C157.048 92.3357 158.454 91.6046 159.403 90.9146C158.413 91.0622 157.309 91.6252 156.109 92.6001Z" fill="white"/>
<path d="M155.411 46.1541C154.421 46.3017 153.321 46.8647 152.118 47.8396C153.056 47.5753 154.463 46.8441 155.411 46.1541Z" fill="white"/>
<path d="M181.535 68.1207C180.05 69.7616 180.17 70.915 180.29 71.3373C180.486 71.8796 180.985 72.168 181.559 72.0547C185.118 71.4265 190.426 66.6549 196.512 58.6118C196.698 58.3681 196.88 58.1278 197.062 57.8875C197.358 57.503 197.64 57.1323 197.911 56.7581L197.451 57.0018C190.299 60.7333 184.2 64.9934 181.535 68.1207Z" fill="white"/>
<path d="M82.4557 137H275.003V0H82.4557V137ZM220.93 41.0976C221.03 40.8161 221.243 40.5964 221.511 40.49C221.608 40.4385 221.759 40.3286 221.903 40.2222C222.017 40.1398 222.134 40.054 222.251 39.9751L223.041 39.2816C223.234 39.0894 223.526 38.983 223.818 38.9933C224.124 39.007 224.406 39.1443 224.592 39.3709C224.781 39.5563 224.888 39.8378 224.874 40.1398C224.86 40.4419 224.723 40.7269 224.496 40.9122C224.31 41.101 223.994 41.4169 223.616 41.6846L223.423 41.8219C223.107 42.0485 222.78 42.2854 222.474 42.4604L222.44 42.4776C222.302 42.5359 222.154 42.5668 222.01 42.5668C221.608 42.5668 221.205 42.3506 220.996 41.9798C220.848 41.7189 220.824 41.3963 220.93 41.0976ZM157.299 44.17L157.767 44.4068C158.361 44.8222 158.575 45.574 158.293 46.2777C157.798 47.311 155.326 48.9484 153.201 49.6762C152.345 49.9714 151.186 50.2357 150.292 49.9611L150.237 50.0572C149.907 50.7198 149.78 51.3583 149.91 51.7462C150.127 52.2508 150.718 52.522 151.657 52.522C154.452 52.522 159.345 50.3559 160.184 49.8925C161.903 49.0171 163.515 48.0456 164.482 47.4655C164.805 47.2732 165.059 47.1187 165.234 47.0192C165.293 46.9917 165.348 46.9711 165.406 46.9505C166.273 46.137 167.26 45.4573 168.295 44.987L168.329 44.9732C168.607 44.8806 168.9 44.8806 169.175 44.9698C169.415 44.5579 169.828 44.3519 170.409 44.3519C170.574 44.3519 170.725 44.3931 170.883 44.4343L171.031 44.4755C172.025 44.8428 172.589 45.4332 172.706 46.2331C173.799 46.6999 175.085 46.9265 176.625 46.9265C177.65 46.9265 178.826 46.7995 180.053 46.5729C180.49 46.0958 180.958 45.5843 181.466 45.035C181.631 44.8153 181.872 44.6746 182.154 44.6403C182.46 44.6025 182.78 44.6952 183.014 44.8874C183.464 45.2616 183.533 45.9825 183.158 46.4288L182.525 47.1737C185.149 45.9825 189.467 44.3107 191.599 44.7123C192.118 44.8222 192.486 45.1209 192.637 45.5568C192.799 46.0168 192.689 46.5764 192.355 46.9849C191.822 47.6714 190.736 47.9838 190.21 47.6028C190.103 47.5272 189.838 47.2801 189.969 46.8167C185.988 47.4105 181.088 50.2495 178.743 51.8904C178.451 52.0963 178.114 52.4568 177.554 53.0609C177.227 53.4111 176.828 53.8436 176.316 54.3723C176.11 54.6194 175.814 54.7499 175.508 54.7499C175.302 54.7499 175.088 54.6915 174.892 54.5645C174.435 54.2727 174.267 53.7338 174.483 53.2497C174.628 52.8447 175.223 51.9624 177.856 48.9999C176.003 49.1098 174.287 48.9278 172.534 48.4438C172.314 49.0857 171.939 49.9405 171.334 50.7129C170.148 52.2439 167.545 54.7018 165.004 54.7018C164.853 54.7018 164.705 54.6915 164.554 54.6744C163.357 54.513 162.604 53.7544 162.535 52.6524C162.467 52.1272 162.556 51.5711 162.704 51.0562C162.243 51.3068 161.762 51.5608 161.267 51.8148C160.325 52.2851 155.442 54.6263 151.712 54.6263C149.659 54.6263 148.36 53.9054 147.851 52.4808C147.455 51.3411 147.724 49.9096 148.59 48.5502C149.419 47.1908 150.88 45.8452 152.506 44.9492C153.575 44.3519 155.628 43.4628 157.299 44.17ZM113.799 39.2645L115.167 37.7472C123.078 28.6193 133.96 23.6143 140.871 22.1004C142.405 21.7606 143.876 21.5889 145.241 21.5889C148.446 21.5889 150.928 22.4918 152.616 24.27C153.538 25.2414 154.026 26.4738 154.026 27.8367C154.026 28.4374 153.954 28.966 153.809 29.4501C152.699 33.2193 148.291 36.7757 142.02 38.959C141.727 39.0688 141.397 39.0482 141.122 38.904C140.871 38.7702 140.692 38.5505 140.62 38.2827C140.417 37.7094 140.699 37.119 141.284 36.8993C147.899 34.5203 150.997 31.1802 151.688 28.8493C152.025 27.6479 151.791 26.5734 151.011 25.7529C149.542 24.1292 147.177 23.7928 145.447 23.7928C143.907 23.7928 142.467 24.0365 141.528 24.2391C134.428 25.7392 124.027 30.9674 116.8 39.2679C113.156 43.0577 110.03 47.9735 108.425 52.4293C107.679 54.5164 107.283 56.4491 107.283 58.0145C107.283 59.7927 107.799 61.1486 108.772 61.9348C109.556 62.5801 110.704 62.9165 112.093 62.9165C115.573 62.9165 120.751 60.9461 126.671 57.3657C130.237 55.2476 133.809 52.6833 136.732 50.1362L137.65 49.3432L138.007 48.8798C138.519 48.2172 139.001 47.5959 139.475 47.0398C139.716 46.7583 139.943 46.4871 140.163 46.2296C140.486 45.8452 140.785 45.4916 141.06 45.1758C132.578 45.6392 124.546 46.8853 120.441 47.6028C119.833 47.6783 119.338 47.2046 119.193 46.7034C119.118 46.4047 119.176 46.1026 119.355 45.8452C119.516 45.6117 119.771 45.4367 120.046 45.368L120.073 45.3611C125.709 44.4171 136.659 42.8346 146.661 42.8346C147.627 42.8346 148.542 42.8346 149.46 42.8861C150.086 42.8861 150.591 43.3461 150.591 43.9365L150.588 43.9743C150.515 44.6162 149.952 45.0213 149.429 45.0831L149.388 45.0865C148.961 45.0865 148.535 45.0728 148.102 45.0625C147.232 45.0385 146.314 45.0385 145.379 45.0625C144.98 45.0728 144.584 45.0831 144.193 45.0865C143.426 46.6107 141.724 48.5983 139.259 50.8502L139.131 50.9772L138.537 51.7187C137.705 52.7142 136.869 53.8196 135.985 54.9833L135.408 55.7454C131.505 60.9221 126.039 68.7146 122.15 76.4315C122.047 76.6752 121.81 76.8778 121.511 76.967C121.407 76.9979 121.304 77.0117 121.201 77.0117C121.022 77.0117 120.854 76.967 120.713 76.8743C120.149 76.5826 119.943 75.9715 120.225 75.412C123.01 69.8542 127.015 63.483 132.138 56.4663C130.739 57.424 129.302 58.3887 127.833 59.2572C123.388 61.9039 117.058 65.0586 112.141 65.0586C110.195 65.0586 108.655 64.5883 107.431 63.6237C105.891 62.3947 105.076 60.4346 105.076 57.9561C105.072 53.6377 107.768 46.1816 113.799 39.2645ZM129.786 112.51C129.322 112.356 129.023 111.94 129.023 111.45C129.068 107.914 130.832 90.1456 133.665 79.5245L133.627 79.5725C126.878 88.3537 106.207 109.143 99.1036 112.963C98.9282 113.049 98.746 113.09 98.5672 113.09C98.1684 113.09 97.7867 112.888 97.5804 112.527C97.436 112.273 97.4051 111.978 97.4945 111.693C97.5804 111.419 97.7627 111.192 98.0136 111.048L98.024 111.045C105.791 106.915 131.127 80.6607 135.435 73.1326L135.58 72.8477L135.776 72.4082C135.979 71.8453 136.195 71.4162 136.467 71.0351C136.793 70.5786 137.368 70.4378 137.866 70.6953C138.365 70.9527 138.578 71.5123 138.385 72.0547C138.265 72.4185 138.083 72.8099 137.89 73.2253L137.691 73.6441L137.615 73.7573L137.529 74.0148C134.717 82.4801 132.654 93.7809 131.395 107.615C139.857 94.9687 146.187 86.3832 151.843 79.8746C158.41 72.319 163.959 67.7259 169.305 65.4156C169.56 65.2886 169.869 65.268 170.151 65.3744C170.43 65.4774 170.653 65.6868 170.767 65.9511C170.877 66.2429 170.88 66.5416 170.777 66.8059C170.667 67.0908 170.45 67.3071 170.165 67.4135C160.627 71.5466 149.295 84.4883 131.062 112.088C130.759 112.51 130.261 112.665 129.786 112.51ZM167.091 97.811C166.765 98.1612 166.366 98.5937 165.853 99.1224C165.644 99.3695 165.351 99.5 165.045 99.5C164.839 99.5 164.626 99.4416 164.43 99.3146C163.973 99.0228 163.804 98.4839 164.021 97.9999C164.096 97.7905 164.289 97.454 164.818 96.7778C163.374 97.4609 159.025 99.3798 155.7 99.3798C153.648 99.3798 152.348 98.659 151.839 97.2343C151.444 96.0946 151.712 94.6666 152.578 93.3038C153.407 91.9444 154.872 90.5987 156.495 89.7028C157.567 89.1123 159.62 88.2232 161.291 88.9304L161.758 89.1672C162.353 89.5826 162.566 90.3378 162.284 91.0381C161.789 92.0714 159.317 93.7123 157.192 94.4366C156.336 94.7284 155.174 94.9961 154.284 94.7181L154.229 94.8142C153.899 95.4767 153.771 96.1152 153.902 96.5031C154.119 97.0078 154.71 97.279 155.649 97.279C158.444 97.279 163.337 95.1129 164.176 94.6494C165.895 93.7741 167.507 92.8026 168.473 92.2224C168.738 92.0611 168.955 91.9306 169.123 91.8345C169.687 91.2166 170.309 90.5369 171 89.7851C171.165 89.5654 171.406 89.4281 171.685 89.3904C171.991 89.3526 172.31 89.4453 172.544 89.6375C172.995 90.0117 173.063 90.7326 172.689 91.1823L172.056 91.9272C174.679 90.736 178.998 89.0642 181.129 89.4659C181.649 89.5757 182.016 89.8744 182.168 90.3104C182.329 90.7703 182.219 91.3299 181.886 91.7384C181.353 92.4215 180.266 92.7374 179.74 92.3563C179.634 92.2808 179.369 92.0336 179.5 91.5702C175.518 92.1641 170.619 95.003 168.274 96.6439C167.985 96.8464 167.648 97.2103 167.091 97.811ZM195.542 90.8802C195.264 91.5736 194.508 92.6138 193.005 94.3645L192.431 95.0545C191.286 96.4208 189.863 98.1234 188.315 100.06C185.2 103.959 180.634 110.004 176.983 117.454C176.821 117.831 176.426 118.061 175.993 118.061C175.845 118.061 175.694 118.034 175.542 117.979L175.491 117.955C174.985 117.666 174.769 117.035 174.992 116.513L174.999 116.499C178.699 108.896 183.399 102.686 186.613 98.6727C186.913 98.2813 187.225 97.9003 187.531 97.5261C186.686 97.9312 185.73 98.271 184.86 98.271C184.21 98.271 183.674 98.0788 183.22 97.6806C182.732 97.2481 182.494 96.6851 182.494 95.9608C182.494 94.5808 183.457 93.0703 183.87 92.4833C184.894 91.0004 186.476 89.3526 187.7 89.0196C187.989 88.9475 188.278 88.9819 188.522 89.1123C188.779 89.2496 188.962 89.4865 189.034 89.7714C189.103 90.046 189.072 90.3481 188.945 90.6021C188.804 90.8836 188.566 91.0759 188.277 91.148C188.185 91.172 187.803 91.3917 187.212 91.9272C186.703 92.3872 186.163 93.0154 185.644 93.7397C185.162 94.4881 184.863 95.0854 184.736 95.5488C184.66 95.8543 184.667 95.9985 184.678 96.05L184.698 96.0706C184.695 96.0672 184.74 96.0809 184.85 96.0809C184.987 96.0809 185.231 96.0569 185.616 95.9367C186.356 95.7067 187.263 95.2433 188.312 94.5636C190.213 93.3141 192.355 91.3986 193.638 89.792C193.985 89.3492 194.549 89.2359 195.037 89.5071C195.536 89.7851 195.742 90.3515 195.542 90.8802ZM260.518 51.5402C260.367 51.7874 260.126 51.9624 259.841 52.0345C258.331 52.4259 252.841 52.8172 248.199 53.0026C246.243 53.0815 244.07 53.1674 242.155 53.1674C241.739 53.1674 241.336 53.1639 240.951 53.1536H240.948C238.62 53.1536 236.99 53.03 236.117 52.7863L236.11 52.7829C234.807 52.3881 234.133 51.4441 234.298 50.2598C234.298 50.1602 234.309 50.0607 234.322 49.9611L232.73 50.7919C231.338 51.4441 229.56 52.2439 228.072 52.6833C227.301 52.9202 226.531 53.0506 225.902 53.0506C225.441 53.0506 224.764 52.9957 224.21 52.5117L224.066 52.3641C223.75 51.959 223.571 51.5265 223.512 51.0802C222.347 51.681 221.144 52.2611 220.215 52.6215C219.015 53.085 216.712 53.8574 214.783 53.8574C212.727 53.8574 211.988 52.9339 211.726 52.1581C211.589 51.705 211.596 51.2518 211.695 50.809C208.866 51.7771 205.424 53.212 204.2 53.7269L202.075 54.6915L201.724 55.2167L198.279 59.9197C191.599 68.6699 186.105 73.4862 181.941 74.2345C181.741 74.2688 181.545 74.286 181.349 74.286C179.95 74.286 178.712 73.4244 178.221 72.0444C177.698 70.4241 178.293 68.464 179.85 66.6583C183.124 62.9028 190.543 57.8806 198.757 53.8608L200.576 53.0026L200.645 52.8687L202.553 50.0332C201.969 50.3902 201.367 50.7472 200.745 51.0905C199.218 51.9109 197.911 52.5117 196.849 52.879C195.646 53.2394 194.308 53.5141 193.397 52.8309L193.359 52.8C193.249 52.6902 193.136 52.5769 193.06 52.443C192.692 51.9624 192.5 51.3926 192.5 50.7919C192.5 49.3398 193.648 47.7572 195.498 46.6622C198.365 45.1105 201.398 45.0762 204.128 46.4528C204.527 46.1919 204.853 45.9516 205.121 45.7559C205.286 45.6358 205.427 45.5328 205.541 45.4573C205.94 45.1483 206.49 45.1689 206.892 45.5191C207.305 45.8795 207.408 46.4562 207.14 46.9231L207.085 46.9952C207.057 47.0329 206.837 47.3899 206.583 47.8019C206.108 48.5674 205.366 49.7723 204.403 51.2587C208.563 49.5492 211.592 48.4507 213.425 47.9838C213.645 47.7504 213.851 47.541 214.026 47.3693C215.804 45.5465 218.042 43.8644 218.224 43.7409C218.462 43.5692 218.761 43.5074 219.05 43.5624C219.332 43.6173 219.579 43.7821 219.755 44.0292C220.109 44.527 219.985 45.2032 219.473 45.5671L219.424 45.5946C219.266 45.6976 217.231 47.2561 215.574 48.9107C214.381 50.1019 213.676 51.2004 213.786 51.4407C214.264 52.0792 217.406 51.3342 219.445 50.5172C221.243 49.8066 224.314 48.1486 225.655 47.3865C226.146 47.0329 226.713 46.6965 227.356 46.3876C229.003 45.5637 231.066 45.0934 233.016 45.0934C234.226 45.0934 235.491 45.3097 236.667 45.7182L237.059 45.8589L237.265 45.7113L238.232 45.09C238.266 45.0556 238.3 45.0247 238.335 44.9973V44.9698L238.476 44.8668C239.029 44.4618 239.655 44.6712 239.988 45.0865C240.312 45.4916 240.37 46.1301 239.865 46.5626L239.679 46.7411L239.5 46.875C239.029 47.2526 238.032 48.1417 237.283 49.0892C236.702 49.7757 236.499 50.2357 236.499 50.4417L236.481 50.5481C236.516 50.5687 236.598 50.6133 236.77 50.6717C237.09 50.7781 238.06 50.9566 240.958 50.9566C243.062 51.0081 245.748 50.9017 248.12 50.8056C253.15 50.6065 258.173 50.2048 259.318 49.9062C259.628 49.8307 259.968 49.889 260.229 50.071C260.463 50.2323 260.614 50.4657 260.656 50.7301C260.718 51.0081 260.669 51.2965 260.518 51.5402Z" fill="white"/>
<path d="M228.316 48.382C228.017 48.5331 227.742 48.6841 227.487 48.842C227.463 48.8626 227.439 48.8867 227.411 48.9072C227.319 48.969 227.181 49.0549 227.016 49.1544C226.538 49.4943 226.167 49.841 225.93 50.1842C225.703 50.5001 225.624 50.682 225.668 50.7884L225.723 50.8468C225.771 50.8536 225.854 50.8605 225.998 50.8605C226.359 50.8605 226.824 50.7678 227.463 50.5722H227.466C228.57 50.2495 230.097 49.6316 231.761 48.8283C232.761 48.3511 233.672 47.8808 234.474 47.4243C234.023 47.3453 233.562 47.311 233.023 47.311C231.489 47.3007 229.815 47.6852 228.316 48.382Z" fill="white"/>
<path d="M164.791 52.6318C165.939 52.9477 168.147 51.2381 169.529 49.4702C170.027 48.7425 170.385 48.0593 170.526 47.565C170.055 47.2423 169.739 46.9814 169.515 46.7343C169.477 46.7549 169.439 46.772 169.402 46.7892C169.384 46.7961 169.367 46.8029 169.35 46.8132C168.58 47.1325 167.352 47.922 166.166 49.2093C165.207 50.2872 164.461 51.8732 164.633 52.4671C164.657 52.5597 164.702 52.6078 164.791 52.6318Z" fill="white"/>
<path d="M48.369 135.191L20.9182 90.2245H19.1062V91.7624H9.4792V80.6126H26.3265L38.742 100.952V80.6126H66.626V90.2245H48.369V135.191Z" fill="white"/>
<path d="M69.4179 137.001H0V0.00393867H69.4179V137.001ZM7.90793 129.105H61.5099V7.8994H7.90793V129.105Z" fill="white"/>
</g>
<defs>
<clipPath id="clip0_90_349">
<rect width="275" height="137" fill="white"/>
</clipPath>
</defs>
</svg>
