<svg width="112" height="112" viewBox="0 0 112 112" fill="none" xmlns="http://www.w3.org/2000/svg">
<path d="M105.187 29.9598C104.632 27.7451 103.503 25.7158 101.914 24.0771C100.324 22.4383 98.3301 21.248 96.1333 20.6265C88.1066 18.6665 55.9999 18.6665 55.9999 18.6665C55.9999 18.6665 23.8933 18.6665 15.8666 20.8132C13.6698 21.4347 11.6758 22.625 10.0862 24.2637C8.49662 25.9025 7.36762 27.9317 6.81327 30.1465C5.34428 38.2924 4.62571 46.5559 4.66661 54.8332C4.61424 63.1727 5.33286 71.4992 6.81327 79.7065C7.42442 81.8524 8.57871 83.8045 10.1646 85.3741C11.7505 86.9436 13.7144 88.0776 15.8666 88.6665C23.8933 90.8132 55.9999 90.8132 55.9999 90.8132C55.9999 90.8132 88.1066 90.8132 96.1333 88.6665C98.3301 88.045 100.324 86.8547 101.914 85.2159C103.503 83.5772 104.632 81.5479 105.187 79.3332C106.644 71.2486 107.363 63.0481 107.333 54.8332C107.386 46.4936 106.667 38.1671 105.187 29.9598Z" fill="black" fill-opacity="0.4"/>
<path d="M45.5 70.0932L72.3333 54.8332L45.5 39.5732V70.0932Z" fill="white"/>
</svg>
